<svg xmlns="http://www.w3.org/2000/svg" width="300" height="60.249" viewBox="0 0 300 60.249"><defs><style>.a{fill:#fff;}</style></defs><g transform="translate(0 0)"><g transform="translate(79.519)"><path class="a" d="M213.1,11.33h.159C213.3,11.251,213.219,11.291,213.1,11.33Z" transform="translate(-206.632 2.81)"/><path class="a" d="M206.518,9.979A1.8,1.8,0,0,1,206.2,9.9.309.309,0,0,0,206.518,9.979Z" transform="translate(-202.472 3.644)"/><path class="a" d="M205.976,9.6c-.04.04,0,.079.079.119C206.016,9.679,206.016,9.64,205.976,9.6Z" transform="translate(-202.328 3.825)"/><path class="a" d="M210.738,11.618c.2-.2.516-.4.6-.2a.868.868,0,0,0,.2-.119H210.5C210.619,11.419,210.738,11.538,210.738,11.618Z" transform="translate(-205.065 2.8)"/><path class="a" d="M222.7,95.5Z" transform="translate(-212.419 -47.96)"/><path class="a" d="M242.369,111.5c-.119.119.318.4.4.4s.119-.079.2-.119C242.647,111.738,242.409,111.659,242.369,111.5Z" transform="translate(-224.265 -57.605)"/><path class="a" d="M233.855,103.1a.868.868,0,0,1,.119-.2C233.736,103.059,233.7,103.138,233.855,103.1Z" transform="translate(-219.087 -52.421)"/><path class="a" d="M207.8-5.576c.556.079.755.119.755.159l.04-.04C208.555-5.537,208.4-6.013,207.8-5.576Z" transform="translate(-203.437 13.084)"/><path class="a" d="M211.342-6.822c.079-.119.159-.2.159-.278C211.3-6.9,211.262-6.822,211.342-6.822Z" transform="translate(-205.549 13.893)"/><path class="a" d="M472.2,46.755Z" transform="translate(-362.832 -18.556)"/><path class="a" d="M469.4,38.9Z" transform="translate(-361.144 -13.838)"/><path class="a" d="M315.714,25.957c.4-.119-2.025-.318-2.025-.4-4.13,1.311-.516-1.112-.993-.715a.246.246,0,0,0,.4.119c2.145,1.469-1.628-2.343-1.708-2.065a.438.438,0,0,0-.4-.04c.119-.2-.119-.6,0-.4a3.8,3.8,0,0,1,3.3.318,3.111,3.111,0,0,1-.6-.4,6.29,6.29,0,0,0,1.708-.4c-1.191-.993-4.13-1.708-5.838-1.906.119.318-.119.2-.516-.119a2.1,2.1,0,0,1-.834-.04c-.04-.079-.159-.318-.079.04-.913-.4-6.037-1.39-5.52-2.1-.516-1.589,3.733-1.311,4.21-1.589-.516-.119-3.495-.318-2.621-.993-.2,0,.2-.2.119,0a1.694,1.694,0,0,1,1.787-.516c-.4-1.708-.2-1.112-.2-.913.119-.318.2.119.2-.2.4.318.715-.119,1.112.318-.715-.715-2.423-.318-1.906-1.191.119.2.318-.119.4,0,0-.119-.119,0-.2-.2-.2.318-1.311-.516-1.39-.6-.2.318-1.589-.715-1.787-.6,0,0-1.191-1.112-1.589-1.112-1.509-.715.4-.2,2.1-.6-.119.119-.119.119.119.119V9.674h.794c.516-.119.318-.318.913-.4-2.224.4-8.221.119-2.3-3.495-1.708-.119-1.787.119-2.026-.318.2.2.2-.119.516.119,0-.119.2-.2.119-.318.119,0,.119.119.2,0,.2.119.715.913.318-.4.318.2.4.2.4,0,.079.2,1.271-.159,1.469-.278-.04.04-.079.119.119-.04a.418.418,0,0,0,.516,0c.119.119-.2,0,.794.318.318.318.2.119.516.2-.119-.516,1.311-.993,1.191-1.191a.865.865,0,0,1-.318.2c0,.04-.08.318-.794-.079.119.119.119.119,0,.2-.794-.318-2.3.2-2.82-.119,0,.2.119.2.2.119,0,.318-.516.119-.318.119,0,0-1.708-.119-.914-.2-.2-.2-.318.119-.4,0,.119-.119.119-.2,0-.2.2,0,.715.119.715-.119.2.119.2-.119.318.2.119-.119.119-.119.2,0-.119-.2.318-.318.318-.2.2-.119.318-.2.516-.318-.2-.318.119-.516.2-.119a.489.489,0,0,0,.2-.4h.119c0-.2-.119-.318-.4-.119,0,.2-.119.318-.2-.119.119.119.6-.4.6-.2.516-.4.794-.516.913-.318,0-.318.715-.119.913.715.119-.2.715,0,.6-.516-.2.119-.2,0,.119-.2a.869.869,0,0,0,.2.119c-.6.119.2.2.318.4a5.81,5.81,0,0,1,.794-.2V2.406c.993.318.715-.119,1.112-.119-.4.794.794-.6.794,0,.2-.318.2-.2.2-.6,0,0-1.191.318-1.509.119,0,.119-1.112.2-.4,0-.119,0-1.112.318-1.112.119h.2a2.537,2.537,0,0,0,.516-.6c.4-.2-1.589-.516-1.509-.516-.318-.2-.318.119-.2.119-.278.079-.04.2-.477,0,.079.04.079.278.278.2,0,.119-.119.119,0,.2,0,0-.6-.4-.4.119.318.2-.913-.2-.715-.318l.079-.079a3.435,3.435,0,0,1-1.191-.119c0,.2-.2.2-.4.2.6.715-.318.2-.318.2s-.913.4-.4-.119c.119.2.119,0,.119,0,.119-.2-.2-.119-.318-.2v.2c-.318-.4.119-.119-.318-.6.318,0-.119-.318-.119-.318a.866.866,0,0,1-.119-.2l-.318.318-.318.318c.119-.119,0-.119-.2,0,.119-.119.119-.4.119-.6-.318.318-.119.715-.318.2-.119.119.4-.6-.2-.6.119-.119.6-.913.2-.6,0,0-.318-.318.914.2-1.191.119.119.2.119.318.119-.119.318,0,.4-.119l.2.119c.119,0,0-.2.2-.119,0,0,1.589.119,1.708-.119,0,.119,0,.2-.119.2a1.5,1.5,0,0,1,.6,0c-.516-.715.516-.119.715-.516.119.119.2.2.4.119-.318-.794-1.191-.318-1.906,0,.119-.2-.2-.119-.2-.318-.2.318-.516.516-.6,0-.119.2-.2.318-.4.119.2-.119.2-.119-.119-.119a3.491,3.491,0,0,1-.6-.2c.119.2,0,.318-.4.2.119-.119.2-.2.318-.2-.119-.119-.2-.2-.119-.4h-.4l.715-.794c-.4.2-1.311.2-1.191,0,0,0,.516,0,.318-.6.119.119.4,0,.516.119-.318-.4-.4-.516-.794-.2,0-.119-.2-.2-.4-.119.119-.119-.6,0-.6,0a5.62,5.62,0,0,1-.318-.715c-.119.119-.2.2-.318.119,0,0,.119.516-.2.6.119-.119-.516-.715-.715-.516h-.715c.119-.119-.2-.2-.318-.119.2-.715,12.232-3.1,14.774-3.217-2.423-.516-2.7-1.311-4.408-3.018.4-2.025,5.719-1.787,7.109-2.5-.2,0-5-.2-4.805-.4-2.621.318,2.7-.913,3.3-.913a.817.817,0,0,0-.516-.834,2.722,2.722,0,0,1,2.224-.159c-2.3-.993-12.153-2.1-12.153-2.1s-2.7-1.589-2.7-1.311c.2.079-.357,0-.4.079-.159-.079-1.271-.437-1.112-.159-.2-.2.119-.516.2-.516a1.393,1.393,0,0,1-.2-.318c2.82,2.224-.715-2.621-.913-2.025a1.98,1.98,0,0,1-1.589-.4c.318,0-3.018-.119-2.9-.318-.318.715-2.7-.318-3.3-.6.119,0,.318-.119.4-.119a28.562,28.562,0,0,0-7.347-.794c-7.109-.318-54.091-.516-54.21-.119-.516.4-.715.4-.6-.119-.4.4-1.112.318-1.708.318a.451.451,0,0,1,.318-.119c-.119,0-2.9-.6-3.1-.6.4-.318-3.495,1.311-3.217.794l-1.509.993c-.834,0-4.408,1.231-4.607-.079a.883.883,0,0,0-.318.794c.2-.318.318-.2.119.119-.04-.04-.2.04-.357.119-.357.119-1.311.437-1.549.477.4-.715.318-.913-.318-.6-.913.437-5.2,2.1-5.441,1.39,0,0-1.191.6-1.708.4v.2c-.318-.2-.2-.119-.715,0-.119.119-.913,0-1.112.119.6.2-.913.516-.794.516.119-.119-.516.993.6,0,0-.119,1.112.318,1.112-.119.4.2.715,0,.993,0-.119.2.2.2.4.119-.2-.119,1.311-.318,1.589-.318-.2.794-.6.993-.993.794a.2.2,0,0,0-.04.278l.04.04c0-.119-.318.516-.4.6,0-.119-.119-.119-.119-.318-.2.2-1.112.119-1.311.4.2-.119.318,0,.516,0-.119.119,0,.2-.2.318,0-.119-.119-.119-.2-.2.119.2-1.708.715-.993.119a1.048,1.048,0,0,1-.278.04c-.238.318-.556.755-.437.755-.079,0-.318,0-.238-.119-.04.04-.953.04-.953.238-.119-.119-2.1-.4-.6.119-.2.119-.516-.2-.715,0,.119-.119-.119-.2,0-.318a5.263,5.263,0,0,1-2.621.913s-.6.6.119.318c-.6.6,1.112,0,.913.318.516-.913.913.4,1.191-.119a3.949,3.949,0,0,1,1.787-.119c-.318-.4,2.621.119,1.509-.2a.722.722,0,0,1,.794,0c.119.2,1.112-.2.715.993-.4-.318-.913,0-.913.2-.6-.6,0,0-.993,0,.2.119.2.119.2.318h.794c.4-.4.715-.516.794-.2.4-.4.318,0,.318.516.318-.2.794.993.715.794-.715.993-2.82,2.423-2.3,1.311-.119.119-.993.715-1.112.4.119-.119,0-.119-.119-.119.119.079-.238.516-.6.6a16.019,16.019,0,0,0,3.495,0c.119-.318.2-.119.318-.318.2.318-.2.4.4.2-.119.516,1.311-.794.318.4-.318-.2-.516-.2-.318,0a2.356,2.356,0,0,0-.913.2H203.4c0,.04-.079.119-.159.2-.2-.318-.318.2-.4-.119-.516.715-.4,0-.6.516,0-.4-1.311.2-1.708.516.119.2.119.2-.2.2-.2.119,0,.119-.119.2l-.318-.318c-.119.119-.119.119-.2,0,0,.4.318,0,0,.516-.2-.2-.318.2-.4.119.119.119.2,0,.2.119.6-.794,2.423-.119,3.614-.993,0,.2.2.119.318.2.2-.318.2-.119.4-.4.516,0,.6.119,0,.318.2.119.516-.2.715-.119-.913.318-.993,0-.913.6.318-.318.6-.4.794-.2-.318-.4.715,0,.794,0a.181.181,0,0,0,0,.2h0c-.4.516.794,1.191,1.112.913a.451.451,0,0,0,.119.318c.318.2-1.39,2.5-.993,2.9.119,0,.913.913,1.589.4-.119.2.318.318.516.2-.4.4-.993.6-1.191.119a.451.451,0,0,1-.318.119c-.318.4,0,.119.4.6.2.516-.2.4-.318.119-.119.4-.715.2-.913.318,1.191.318,3.813-.119,2.3.318.119,0,.119.119,0,.119,1.509.715.715,1.191,1.509,1.112.318-.2.4-.2.318,0,.318-.318.318.318.516.119.119.119,0,.2-.119.2,0,2.5,2.7,6.037,6.632,7.943.715-.2-.516,1.708-.318,1.787-.2,0-.318.119-.6.2,0,0-.516.794-.913,1.509-.2.2-1.589.715-1.509.516,2.3-2.7-1.787.119-1.787.2-.6-.318-.913-.318-.913.119-.4-.318-.2.318-.913,0,.119.6-4.607,1.112-5.2,1.191-.2-.119-.516,0-.794,0,.6.4-.4.516-1.906.913.437-.079.477,0,.278.159,0-.04-.119-.04-.2-.04.04.04.079.04.119.079h.04a5.83,5.83,0,0,0,.675.357c.437.675.635,1.469.794,1.469.04,0,.119-.04.119-.079h0c.119.516.913.2,1.191.6-.913,1.191,4.527.993,4.527,1.589.2-.2.4.119.6,0,0,.318-.715.516.794.4-.2,0-.318.119-.2.318.516-.2.794-.516,1.589.2-.04,0-.119.04-.119.079h0s-.4.119-.2.318a3.525,3.525,0,0,0,.318,2.9c-1.906-.4-4.686,1.39-4.805,1.509.04.04.357.794.079.715-.4.4-.119.516.913.2-.6-.318,1.39-1.311,1.39-1.311.2-.119.6-.318.715-.6.2.2.913-.4.2.318-.119-.2-.2.4-.715.4.516.516,1.787.516,3.495.794h-.119c.318,0,.715.119.993.119a3.385,3.385,0,0,1-.913.119.866.866,0,0,1,.119.2c-.4-.2-.318,0-.715,0a15.19,15.19,0,0,1-2.025.715s1.787.119,1.708-.318c.4.2.715,0,1.112-.119-.119.318.2.2.4.119-.318-.119.715,0,.794.119v-.119c.2,0,.318.119.2.2.119-.119.715.119.6,0,.516.2-.2.715-.6.6,0,0-.794,0,.318.2.4,0-.913.2-.993.318.119-.2-.119-.119-.119-.318-.2.2-1.191.119-1.311.4.2-.119.4,0,.516,0-.119.119,0,.2-.119.318,0-.119-.119-.119-.2-.2.119.2-1.708.794-1.112.2a.564.564,0,0,1-.238.079,2.787,2.787,0,0,0-.4.755.741.741,0,0,0-1.072-.079c.318,0,.4.119.794.119-.2.318-.913-.2-.993.2-.119-.119-2.3-.2-.6.2-.2.119-.516-.119-.794.119.119-.119-.119-.2-.119-.318a5.58,5.58,0,0,1-2.5,1.112s-.6.715.2.318c-.516.715,1.112-.119.993.2.4-.913.993.318,1.191-.2a3.889,3.889,0,0,1,1.906-.318c-.318-.4,2.7-.119,1.509-.318a1.217,1.217,0,0,1,.913-.119c.119.119,1.39-.4,1.509-.318-.119.2,0,.2.318,0a3.526,3.526,0,0,0,1.827-.119c-.119.119-.2,0-.2.119.2-.079.556.079.6-.079.04,0,.278-.159.4-.04,0,.079.238.715-.2.2-.2.4-3.3.4-2.9.913-.318,0-.4.119-.4.4a.536.536,0,0,0-.794.119.3.3,0,0,0-.079.2c-.715-.516,0,0-.993,0,.2.119.2.119.2.318l.794-.119c.4-.4.6-.516.794-.2,0,0,.4-.516.4-.119,1.906-1.311,2.025,0,1.708.477a5.73,5.73,0,0,0,1.827-.357c-.2,0-.516,0-.6-.2.794.318,1.112.119,1.191-.119,0,.318.516,0,.6.2-.119-.2,0-.2.2-.119.2-.318,1.112,0,1.112-.119,0,0,.516-.516.4,0,.318-.6,2.5.6,2.3-.318.119.119.318.2.4.318,0-.119.4-.2.4.119.119-.2.516-.318.6-.119.119-.318.715-.119.794,0,.119-.2.2,0,.2-.2,0,.119.119.119.119,0,.119.2.2,0,.2.119.119-.318,1.39.2,1.589.2a.451.451,0,0,1-.318.119c.119.4-.516.119-.6.119.4.318,0,.2-.119.119.119,0,.119-.119-.119-.2-.2.2-1.311.6-1.191.2-.913.516-.913.516-2.7.4.318.318.516.516-1.112.4.2.119-.318.119-.318,0,0,.119-.119,0-.119.119a.445.445,0,0,1-.516-.119c.04,0,.079-.04.159-.04-.278-.079-.437-.04-.238.04-.516-.119-1.112.2-1.509,0,.119.516-.318-.318-.715.318-.119.119,1.39.2,0,.4.119-.2-1.112.318-1.191.318v.119s0,.318-.318-.2c-.119.6-.6.119-.6.2a11.723,11.723,0,0,0-3.018,1.311,16.162,16.162,0,0,0,2.423.318c-.794.2-1.708.4-2.5.6-.993.715-2.025,1.311-3.018,2.025a25.33,25.33,0,0,1,8.618-.913c4.329-1.112,8.618-2.3,12.868-3.415.794.119,1.708.2,2.5.318-5.52,1.509-5.441,1.906-10.842,3.415,11.239-1.589,16.879-1.906,28.118-3.018a12.029,12.029,0,0,0,5.441-.119,274.618,274.618,0,0,1,48.77-3.3l-.6.2c.119.318.516.4.794.516.2,0,6.831-.119,6.712-.318.2-.4.4-.715.794-.4,0-.2.2-.119.2-.2-.119-1.191,1.191.119,1.39-.318.119.119.913-.119.715.4.119-.119.2-.119.2.119.318-.4,2.423,0,2.9-.6,0,.119.119.119.2.119-.119,0,.2-.516.6,0C319.328,25.48,318.931,27.466,315.714,25.957ZM213.33-21.343a.634.634,0,0,1-.318.119A2.734,2.734,0,0,0,213.33-21.343Zm4.408-.357a1.178,1.178,0,0,1,.874-.556ZM246.73,24.17l-12.232.119c-4.527,0-7.546-3.018-7.625-7.546l-.119-30.938h7.625l.119,29.508a1.58,1.58,0,0,0,1.787,1.787h8.42a1.58,1.58,0,0,0,1.787-1.787l-.04-29.508h7.625l.2,30.7C254.275,21.032,251.257,24.051,246.73,24.17Zm41.78-7.744c0,4.527-3.018,7.546-7.546,7.625l-11.954.119c-4.527,0-7.546-3.018-7.625-7.546V11.7h7.427v3.415A1.58,1.58,0,0,0,270.6,16.9h8.34a1.58,1.58,0,0,0,1.787-1.787V11.1c0-1.191-.6-1.509-1.787-1.787l-9.929-2.1c-4.13-.913-7.625-3.415-7.744-7.625V-6.967c0-4.527,3.018-7.546,7.546-7.625H280.05c4.527,0,7.546,3.018,7.625,7.546v4.527h-7.387v-3.1A1.58,1.58,0,0,0,278.5-7.4h-7.625a1.58,1.58,0,0,0-1.787,1.787V-2c0,1.191.6,1.509,1.787,1.787l9.929,2.1c4.13.913,7.625,3.415,7.744,7.625v6.91Z" transform="translate(-196.814 24.204)"/><path class="a" d="M467.6,39.2Z" transform="translate(-360.058 -14.019)"/><path class="a" d="M209.7-4.9Z" transform="translate(-204.582 12.567)"/><path class="a" d="M209.8-5.1Z" transform="translate(-204.643 12.687)"/><path class="a" d="M255.2,113.4c.04,0,.119.04.159.04A.3.3,0,0,0,255.2,113.4Z" transform="translate(-232.012 -58.751)"/></g><g transform="translate(206.115 11.018)"><path class="a" d="M20.374,0a7.171,7.171,0,0,1,7.546,7.546v23.59a7.171,7.171,0,0,1-7.546,7.546H7.546A7.171,7.171,0,0,1,0,31.136V7.546A7.171,7.171,0,0,1,7.546,0Zm-.079,9.015a1.577,1.577,0,0,0-1.827-1.787H9.452A1.608,1.608,0,0,0,7.625,9.015V29.707a1.62,1.62,0,0,0,1.827,1.827h9.055a1.62,1.62,0,0,0,1.827-1.827V9.015Z"/><path class="a" d="M112.424,31.438a7.171,7.171,0,0,1-7.546,7.546H92.646A7.171,7.171,0,0,1,85.1,31.438V.5h7.625V30.008a1.608,1.608,0,0,0,1.787,1.827h8.419a1.592,1.592,0,0,0,1.787-1.827V.5h7.625Z" transform="translate(-51.303 -0.301)"/><path class="a" d="M184.273,7.649V38.864h-7.625V7.649H166.6V.5h27.721V7.609H184.273Z" transform="translate(-100.435 -0.301)"/></g><g transform="translate(0 11.219)"><path class="a" d="M7.546,28.515v9.849H0V0H7.546V17.951L20.771,0h9.015L18.07,15.052,30.421,38.245H21.8l-8.817-16.68Z"/><path class="a" d="M91.8,0h7.625V38.364H91.8Z" transform="translate(-55.342)"/><path class="a" d="M139.973,7.109V38.325h-7.625V7.109H122.3V0h27.721V7.109Z" transform="translate(-73.729)"/></g></g></svg>