<svg xmlns="http://www.w3.org/2000/svg" xmlns:xlink="http://www.w3.org/1999/xlink" width="160" height="88.269" viewBox="0 0 160 88.269"><defs><style>.a{fill:#fff;}.b{clip-path:url(#a);}.c{fill:#e11973;}</style><clipPath id="a"><path class="a" d="M0,10.078H160V-78.191H0Z" transform="translate(0 78.191)"/></clipPath></defs><g transform="translate(-81 -50)"><g class="b" transform="translate(81 50)"><g transform="translate(0 -0.001)"><path class="a" d="M.006,3.334l7.036-1.42c-.431,4.569.618,7.531,2.84,7.531,1.789,0,2.531-1.358,2.531-3.395,0-6.729-12.1-10.927-12.1-21.173,0-6.111,3.951-10.741,10.309-10.741,6.42,0,9.754,4.569,9.506,11.791l-6.913,1.358c.185-3.643-.371-6.605-2.531-6.605-1.605,0-2.47,1.358-2.47,3.334,0,5.863,12.162,10.617,12.162,21.234,0,6.358-4.2,10.864-10.309,10.864C3.709,16.112-.551,11.359.006,3.334" transform="translate(0.043 25.865)"/></g></g><g transform="translate(102.046 50.37)"><path class="a" d="M.663,4.708V-29.676h-5.8v-6.851H14.674v6.851H8.934V4.708Z" transform="translate(5.14 36.527)"/></g><g class="b" transform="translate(81 50)"><g transform="translate(43.036 0.369)"><path class="a" d="M1.5,3.418V-26.521H9.773V2.368c0,7.717-3.147,12.717-10.679,12.717s-10.741-5-10.741-12.717V-26.521h8.273V3.418c0,2.593.247,4.877,2.469,4.877C1.254,8.3,1.5,6.011,1.5,3.418" transform="translate(11.648 26.521)"/></g><g transform="translate(67.288 0.37)"><path class="a" d="M0,0H8.766C18.087,0,21.79,7.346,21.79,20.679s-3.7,20.556-13.024,20.556H0ZM8.148,34.507h.741c3.827,0,4.259-4.259,4.259-13.828S12.716,6.79,8.889,6.79H8.148Z"/></g></g><path class="a" d="M89.784-36.628H81.513V-77.863h8.271Z" transform="translate(91.506 128.233)"/><path class="c" d="M143.383-40.226H114.026v-6.852h29.357Z" transform="translate(95.697 132.201)"/><g class="b" transform="translate(81 50)"><g transform="translate(103.289 -0.001)"><path class="a" d="M2.587,2.4c0,14.013-3.766,20.988-11.3,20.988-7.593,0-11.359-6.975-11.359-20.988,0-13.951,3.766-20.988,11.359-20.988,7.53,0,11.3,7.038,11.3,20.988m-14.136,0c0,10.124.494,14.136,2.84,14.136,2.284,0,2.777-4.012,2.777-14.136S-6.425-11.74-8.709-11.74c-2.346,0-2.84,4.013-2.84,14.136" transform="translate(20.068 18.592)"/></g><g transform="translate(0 46.664)"><path class="a" d="M1.586,4.708A14.874,14.874,0,0,1,.475.264l-.741-8.4c-.37-2.346-1.173-3.334-3.025-3.334h-.8V4.708H-12.3V-36.527H-2.179c8.209,0,11.543,4.505,11.543,11.852,0,5.678-2.9,8.95-6.111,9.877v.123c2.346.617,4.259,2.654,4.63,6.235L8.808.078a12.392,12.392,0,0,0,1.235,4.63ZM-3.291-29.8h-.8v12.1h.8c3.581,0,4.2-2.223,4.2-6.05,0-3.951-.618-6.05-4.2-6.05" transform="translate(12.303 36.527)"/></g></g><g transform="translate(104.806 96.663)"><path class="a" d="M0,0V41.235H16.606V34.384H8.21V23.642H14.94V16.976H8.21V6.852h8.4V0Z"/></g><g class="b" transform="translate(81 50)"><g transform="translate(42.466 46.664)"><path class="a" d="M.923,3V17.941H-7.163V-23.294H1.911c7.9,0,11.79,4.258,11.79,13.086C13.7-1.319,10,3,1.911,3Zm.741-19.568H.923v12.9h.741c2.778,0,3.889-1.79,3.889-6.543,0-4.692-1.111-6.358-3.889-6.358" transform="translate(7.163 23.294)"/></g><g transform="translate(64.642 46.663)"><path class="a" d="M1.5,3.418V-26.521H9.773V2.368c0,7.717-3.147,12.717-10.679,12.717s-10.741-5-10.741-12.717V-26.521h8.273V3.418c0,2.593.247,4.877,2.469,4.877C1.254,8.3,1.5,6.011,1.5,3.418" transform="translate(11.648 26.521)"/></g><g transform="translate(88.893 46.664)"><path class="a" d="M1.628,2.319c4.2,1.05,6.3,4.507,6.3,9.754,0,6.851-3.766,11.173-11.852,11.173h-8.7V-17.99h8.581c7.778,0,11.235,4.135,11.235,10.74C7.183-2,5.147,1.208,1.628,2.2ZM-4.915-.706h.678c2.963,0,3.642-1.79,3.642-5.432,0-3.581-.678-5.185-3.7-5.185h-.616Zm0,17.283h.988C-.9,16.578-.1,14.726-.1,11.023c0-3.58-.865-5.432-3.889-5.432h-.926Z" transform="translate(12.632 17.99)"/></g></g><g transform="translate(192.337 96.663)"><path class="a" d="M0,0V41.235H15.987V34.384H8.273V0Z"/></g><path class="a" d="M114.026,4.379H122.3V-36.856h-8.273Z" transform="translate(95.697 133.519)"/><g class="b" transform="translate(81 50)"><g transform="translate(139.136 46.293)"><path class="a" d="M1.276,0c6.79,0,9.629,5.494,9.629,13.21l-7.654,1.3c.123-3.642,0-7.284-2.1-7.284-1.974,0-2.531,4.505-2.531,13.7s.557,13.828,2.593,13.828c2.1,0,2.222-3.766,2.1-7.47l7.655,1.3c0,7.777-2.84,13.4-9.692,13.4-7.285,0-11.173-6.914-11.173-21.05C-9.9,6.852-6.071,0,1.276,0" transform="translate(9.897)"/></g></g></g></svg>