<svg xmlns="http://www.w3.org/2000/svg" width="300" height="74.294" viewBox="0 0 300 74.294"><defs><style>.a{fill:#fff;}</style></defs><path class="a" d="M3.7,27.487v-2.54l-.231-9.238H3.233A12.1,12.1,0,0,1,.693,13.4,25.172,25.172,0,0,0,0,19.4,37.215,37.215,0,0,0,1.386,29.566h.231C2.309,28.873,3.464,28.18,3.7,27.487Z" transform="translate(0 17.94)"/><path class="a" d="M28.333,6.9c0,.231-.231.462-.462.924l-.462.924A28.74,28.74,0,0,1,25.1,13.368L26.486,29.3A9.777,9.777,0,0,1,27.64,30.92c.693,1.386,1.617,3,2.54,5.081.693,1.386,1.386,2.54,2.078,3.926a.806.806,0,0,0,.231.462c.462-.231.924-.693,1.386-.924A18.213,18.213,0,0,0,36.647,36h0a3.188,3.188,0,0,0,.693-.924c1.847-2.54,3.695-5.081,5.312-7.621l.462-.693A36,36,0,0,0,30.181,3.9l-.693.693A7.224,7.224,0,0,0,28.333,6.9Z" transform="translate(32.865 5.501)"/><path class="a" d="M1.224,22.2a24.542,24.542,0,0,0,2.54,2.078,3.184,3.184,0,0,0,2.078,0h0c.231,0,.693-.231.924-.231h.693a3.93,3.93,0,0,0,1.617-.231c.462-.231.462-.693.462-1.617v-.231c-.462-4.619-.693-9.238-.924-13.625V8.109L8.383,5.8A37.829,37.829,0,0,0,.3,21.5c.462.231.693.231.924.693Z" transform="translate(0.393 7.988)"/><path class="a" d="M5.6,24.064c0,2.078,2.078,3,4.388,3.233,0-2.309.231-4.619.231-6.7C7.909,20.831,5.6,21.986,5.6,24.064Z" transform="translate(7.333 27.367)"/><path class="a" d="M8.448,19.964c-.231,1.155-.693,2.309-.924,3.233A6.914,6.914,0,0,1,6.6,25.045a10.164,10.164,0,0,1,2.309-.462c.231-2.771.462-5.543.693-8.083l-.693,2.078A4.788,4.788,0,0,1,8.448,19.964Z" transform="translate(8.642 21.999)"/><path class="a" d="M12.557,23.933a3.133,3.133,0,0,0-1.617-2.54A3.9,3.9,0,0,0,8.631,20.7c0,2.078-.231,4.388-.231,6.466C10.709,26.935,12.557,26.012,12.557,23.933Z" transform="translate(10.999 27.498)"/><path class="a" d="M8.94,24.593A4.655,4.655,0,0,1,6.4,23.9c1.155,2.54,1.848,5.312,2.771,7.852a11.244,11.244,0,0,0-.231-2.771C8.94,27.6,8.94,26.209,8.94,24.593Z" transform="translate(8.38 31.688)"/><path class="a" d="M22.94,20.316h0a9.473,9.473,0,0,1,2.54.231,19.673,19.673,0,0,1,5.312.924h.231L29.868,9a18.46,18.46,0,0,1-3,3,21.774,21.774,0,0,0-2.309,2.309c-1.386,1.848-2.771,3.7-3.926,5.543l-.231.462h2.54Z" transform="translate(26.711 12.178)"/><path class="a" d="M9.655,32.786V33.94c.693,5.081,1.155,10.392,3.464,15.242.462.462.462,1.155.693,1.848l9.238.231A1.731,1.731,0,0,0,24.2,51.03a3.338,3.338,0,0,1-.462-1.617,3.238,3.238,0,0,1,2.771-3.233,6.393,6.393,0,0,1,.231-2.078,16.36,16.36,0,0,0,.231-3.233V39.252h0v-.231h0V36.25c0-1.847,0-4.388-1.617-5.081a8.622,8.622,0,0,0-4.85-.693,1.731,1.731,0,0,0-1.155.231h0a6.7,6.7,0,0,1-3.7,0c-1.155-.462-1.386-2.078-1.617-2.54,0-.693-.231-1.617-.231-2.309V25.4a11.244,11.244,0,0,0-.231-2.771V19.853a11.189,11.189,0,0,1,0-3.926c.231-1.155.462-2.54.693-3.7h0c0-.462.231-.693.231-1.155s.462-.693.924-.693.693.462.693.924c-.231,1.386-.462,3-.924,4.85a9.919,9.919,0,0,0,0,3.7v.462h0v1.848c0,.924.231,2.078.231,3v2.771c0,.693.231,1.386.693,1.386a5.608,5.608,0,0,0,2.771,0h0c.462,0,.924-.231,1.386-.231a11.515,11.515,0,0,1,5.543.693c2.54,1.155,2.54,4.388,2.54,6.7V41.1a17.479,17.479,0,0,1-.231,3.464c0,.693-.231,1.155-.231,1.847a3.048,3.048,0,0,1,2.54,3.233,1.388,1.388,0,0,1-.231.924,9.41,9.41,0,0,0,4.157,1.155,46.242,46.242,0,0,0,5.543-.924,87.569,87.569,0,0,0,11.085-3.233,5.049,5.049,0,0,0,1.155-.693.226.226,0,0,0-.231-.231l-.231-.231a16.169,16.169,0,0,1-2.078-3.926c-.924-2.078-1.617-3.464-2.309-4.85a3.675,3.675,0,0,0-2.078-2.078,35.852,35.852,0,0,0-4.85-.924c-1.155,0-2.54-.231-3.695-.231H34.827a2.929,2.929,0,0,1-1.386-.231c-.693-.231-1.617-.462-2.309-.693l.231-.924c-2.078-.693-1.617-2.309-1.386-3.233.462-.924.693-2.078,2.771-1.848.693,0,1.386-.693,2.078-1.848.231-.231.231-.462.462-.693V24.7a4.456,4.456,0,0,1-.693-2.309,3.809,3.809,0,0,1,1.847-2.309c.231,0,.231-.231.462-.231a.715.715,0,0,1,.462-.231s.462,0,.462.231a.715.715,0,0,1,.231.462c0,.231,0,.462-.231.462l-.231.231h-.231c-.462.462-1.155.924-1.155,1.386a3.282,3.282,0,0,0,.462,1.386.848.848,0,0,1,.231.693l1.386,1.386c.231-.231.462-.462.462-.693h0v-.231a21.773,21.773,0,0,1,2.309-2.309,24.719,24.719,0,0,0,3.233-3.7,27.434,27.434,0,0,0,3-5.773L47.759,12a.806.806,0,0,1,.231-.462h0c0-.231,0-.231.231-.462a5.5,5.5,0,0,1,1.386-2.54l.693-.693A38.722,38.722,0,0,0,8.5,4.38a91.342,91.342,0,0,1,1.617,13.625A104.292,104.292,0,0,1,9.655,32.786ZM19.123,19.16h0a5.415,5.415,0,0,1,.462-2.771c.231-.231.231-.231.693-.231h4.157v3.7h.924v3H19.816a6.037,6.037,0,0,1-.693-1.847V19.16Z" transform="translate(11.13 0.171)"/><path class="a" d="M9.062,16.9c-.231,2.54-.462,4.85-.462,7.159.924.231,1.617.462,2.309.693A43.251,43.251,0,0,1,9.062,16.9Z" transform="translate(11.261 22.523)"/><path class="a" d="M23.517,11.3l-.231.231c-.693,1.155-1.848,2.771-3.7,2.54H18.9c-.231,0-.231.231-.462.924-.462.924-.231.924.462,1.386l.462.231a15.912,15.912,0,0,0,1.848.693L21.9,16.15c.924-1.155,1.617-2.54,2.54-3.7Z" transform="translate(23.825 15.19)"/><path class="a" d="M16.362,20.962c-.462.231-.462.693-.462,1.386A1.987,1.987,0,0,0,17.748,24.2,1.821,1.821,0,0,0,19.6,22.348a3.282,3.282,0,0,0-.462-1.386,3.282,3.282,0,0,0-1.386-.462A1.952,1.952,0,0,0,16.362,20.962Z" transform="translate(20.819 27.236)"/><path class="a" d="M11.523,27.459a3.708,3.708,0,0,1-1.155-2.54l-1.386-.693a8.1,8.1,0,0,1-1.848-1.155c-.462-.231-.924-.693-1.386-.924h0l-.231-.231A8.294,8.294,0,0,0,3.209,20.3a12.692,12.692,0,0,1-2.078,1.617H.9a37.761,37.761,0,0,0,15.473,19.4q-2.078-6.928-4.85-13.856Z" transform="translate(1.178 26.974)"/><path class="a" d="M31.133,20.847h0A23.078,23.078,0,0,1,27.9,22.7a3.722,3.722,0,0,0,.924,1.617c.231.231.693.462.924.693a4.142,4.142,0,0,1,1.617,1.155A26.583,26.583,0,0,1,34.6,30.085,32.282,32.282,0,0,0,38.754,19Z" transform="translate(36.532 25.272)"/><path class="a" d="M39.082,24.7C38.62,24.464,38.158,24,37.7,24a5.048,5.048,0,0,1-1.155-.693A4.792,4.792,0,0,1,35.156,21c-.462.231-1.155.462-1.617.693l-2.078,2.078a55.216,55.216,0,0,1-5.312,5.081,55.253,55.253,0,0,1-4.85,3c2.771,3.7,7.159,5.773,11.547,7.852a35.522,35.522,0,0,0,9.93-10.392v-.231C41.392,27.466,40.237,26.081,39.082,24.7Z" transform="translate(27.89 27.891)"/><path class="a" d="M31.386,22.521c-.231.231-.231.462-.462.462h0c-.231.462-.693.924-.924,1.386l6.466-1.617a41.229,41.229,0,0,0,.462-5.312V14.9l-.231.231h0c-1.617,2.078-3,4.388-4.619,6.466Z" transform="translate(39.281 19.904)"/><path class="a" d="M26.482,37.766c0-.231.231-.231.231-.462h0l.231-.231a8.788,8.788,0,0,1,2.078-3,19.214,19.214,0,0,1,4.157-3,58.54,58.54,0,0,0,8.314-4.619,33.4,33.4,0,0,0,5.081-4.85c-2.078.693-4.157,1.155-6,1.617a25.069,25.069,0,0,1-5.773.924h-.462a9.869,9.869,0,0,1-4.619-1.386,3.709,3.709,0,0,1-2.54,1.155,6.743,6.743,0,0,1-2.078-.462c-.462.462-1.155.462-1.848.693H21.633l-8.083-.231A3.173,3.173,0,0,1,12.4,25.757c-2.078,4.619-3,9.93-3.7,14.78v.693a39.746,39.746,0,0,0,10.392,3.7c.462,0,.693.231.924.231.462,0,.693,0,.693.231a7.856,7.856,0,0,0,2.309.231v-.462a20.322,20.322,0,0,1,1.155-3.464,9.536,9.536,0,0,1,1.617-2.54Z" transform="translate(11.392 28.677)"/><path class="a" d="M27.047,25.9l-2.078,1.155a14.888,14.888,0,0,0-3.7,2.54,10.254,10.254,0,0,0-1.848,2.54.226.226,0,0,1-.231.231h0c0,.231-.231.231-.231.462-.231.462-.693.924-.924,1.386a20.308,20.308,0,0,0-1.386,2.309c-.462,1.155-.693,2.309-1.155,3.233h2.309a38.892,38.892,0,0,0,20.784-6C34.206,32.135,30.049,29.826,27.047,25.9Z" transform="translate(20.295 34.307)"/><path class="a" d="M8.5,24.593v7.159A43.586,43.586,0,0,1,10.578,23.9,3.725,3.725,0,0,1,8.5,24.593Z" transform="translate(11.13 31.688)"/><path class="a" d="M15.033,2.4a38.133,38.133,0,0,0-7.39,6c0,1.386.231,2.771.231,4.157h0c.231,4.388.462,8.776.924,13.163v.231a2.746,2.746,0,0,1-1.155,3.233,6.832,6.832,0,0,1-2.309.462H4.64a.848.848,0,0,0-.693.231H3.717a3.93,3.93,0,0,1-1.617.231l.231,9.007V41.89c.693.462,1.386,1.155,2.078,1.617.231,0,.231.231.462.231a7.018,7.018,0,0,0,1.617,1.155,3.722,3.722,0,0,0,1.617.924l.693.693a5.453,5.453,0,0,1,1.386-2.078.806.806,0,0,1,.231-.462c0-.231.231-.462.231-.693A7.224,7.224,0,0,0,11.8,40.967a13.238,13.238,0,0,0,.924-3.233c0-.231,0-.231.231-.462,0-.231.231-.693.231-.924l2.54-8.314a125.371,125.371,0,0,0,.462-13.163A75.916,75.916,0,0,0,15.033,2.4Z" transform="translate(2.75 3.537)"/><path class="a" d="M45.286,3.233h0A24.623,24.623,0,0,1,61.22,12.009c.231.462.693.462,1.155.462a1.764,1.764,0,0,0,1.155-.462,1.723,1.723,0,0,0,0-2.078A26.8,26.8,0,0,0,45.748,0h-.231A1.945,1.945,0,0,0,43.9,1.617,1.527,1.527,0,0,0,45.286,3.233Z" transform="translate(57.482 0.394)"/><path class="a" d="M48.188,21.458c.231.924.462,2.078.693,3a11.592,11.592,0,0,0,.462,2.771c.231.462.231.924.462,1.155h4.157c.231-.462.231-.924.462-1.155,0-.231.231-.462.231-.693a2.442,2.442,0,0,1,1.617-1.386l.231-.231,1.155-.462h-.231a.848.848,0,0,1-.231-.693c0-.231.231-.462.462-.693s.462,0,.693,0c.462.231,3.7,2.309,3.926,2.54h0c.231-.231.462-.462.693-.462h0a.226.226,0,0,0,.231-.231l1.386-1.155C60.428,15.685,52.576,10.373,43.8,10.6v7.621C45.647,18.456,47.5,19.149,48.188,21.458ZM53.5,20.073a.7.7,0,0,1,.924,0l1.386,1.386c.231.231.231.462.231.924,0,.231-.462.462-.693.462s-.231,0-.462-.231L53.5,21.227c-.231-.231-.231-.231-.231-.462A.848.848,0,0,1,53.5,20.073ZM51.19,16.608h0c0,.231.231.231.231.462h0l.462.462.462.462a1.031,1.031,0,0,1,0,1.155c-.231.231-.231.231-.462.231s-.462,0-.462-.231l-.462-.462-.462-.693c-.231-.231-.231-.462-.462-.693-.231-.462-.231-.924.231-1.155A.922.922,0,0,1,51.19,16.608ZM47.957,11.99c.231-.231.231-.231.462-.231a.806.806,0,0,1,.462.231c.462.693.693,1.155,1.155,1.848v.693a.5.5,0,0,1-.462.462h-.231c-.231,0-.462-.231-.693-.462a5.789,5.789,0,0,0-.924-1.617.571.571,0,0,1,.231-.924Z" transform="translate(57.351 14.269)"/><path class="a" d="M43.423,27.946l.231.231.462.462a1.388,1.388,0,0,0,.924.231h0c.231,0,.462,0,.462.231l8.776,2.54v-6.7a33.128,33.128,0,0,1-5.081.924H47.811a9.087,9.087,0,0,1-6.7-3,12.275,12.275,0,0,1-2.771-5.773c-.231-.924-.231-1.617-.462-2.54a11.591,11.591,0,0,0-.462-2.771c0-.462-.231-.693-.462-1.155L32.8,6.7a46.063,46.063,0,0,1,5.081,15.935Z" transform="translate(42.948 9.167)"/><path class="a" d="M37.657,18.144a3.109,3.109,0,0,1,1.155,2.078v.231c0,.231.231.462.231.693a.715.715,0,0,1,.462.231,5.126,5.126,0,0,0,2.54,1.155.848.848,0,0,0,.693-.231,3.432,3.432,0,0,1,2.078-.462,8.961,8.961,0,0,1,2.54,1.386c1.617,1.386.924,3,.462,3.926h0l-.231.231a1.2,1.2,0,0,1-.924.462c-.231,0-.231,0-.462-.231a1.111,1.111,0,0,1-.462-1.386L45.971,26c.462-.924.462-1.155.231-1.386h0a8.1,8.1,0,0,0-1.847-1.155.848.848,0,0,0-.693.231,4.281,4.281,0,0,1-1.617.462,4.1,4.1,0,0,1-2.309-.924h0a8.205,8.205,0,0,0,.462,2.309,9.507,9.507,0,0,0,2.309,4.85,6.977,6.977,0,0,0,6.466,2.309c1.847-.231,3.464-.693,5.312-.924V1.748S54.284-.1,52.9-.1A22.382,22.382,0,0,0,40.89,4.288l.231.462c.231.462,0,.924-.462.924h-.231c-.231,0-.462-.231-.693-.462h0A23.413,23.413,0,0,0,33.5,13.756c.231,0,.231,0,.462.231Zm12.009.693a.848.848,0,0,1,.693-.231l1.847.693a.922.922,0,0,1,.462.924c0,.231-.462.462-.693.462h-.231L49.9,19.992c-.231,0-.462-.231-.462-.693A.715.715,0,0,1,49.666,18.837Zm-4.388-2.078a.571.571,0,0,1,.924.231.226.226,0,0,0,.231.231c.231.231.462.231.693.462l.693.231c.231,0,.231.231.462.462v.693a.5.5,0,0,1-.462.462H46.663c-.462-.231-.924-.231-1.155-.693l-.462-.462C44.816,17.451,45.047,16.989,45.278,16.758ZM43.661,12.6c.231.231.231.231.231.462l.693,1.386c0,.231.231.462.231.693a.806.806,0,0,1-.231.462c-.231,0-.231.231-.462.231s-.462-.231-.693-.231c-.231-.462-.693-.924-.924-1.386,0-.231-.231-.231-.231-.462-.231-.231,0-.462,0-.693.231-.231.462-.462.693-.462S43.661,12.371,43.661,12.6ZM40.89,7.521c.462-.231.693,0,.924.462l.462,1.155c.231.231.231.693.462.924v.693c0,.231-.231.231-.462.462h-.231c-.231,0-.462-.231-.693-.462v-.231h0c0-.231-.231-.462-.231-.693l-.462-.924C40.2,8.214,40.428,7.752,40.89,7.521Z" transform="translate(43.864 0.263)"/><path class="a" d="M51.858,29.711V22.783l-9.238-2.771h-.462a3.282,3.282,0,0,1-1.386-.462c-.231-.231-.693-.462-.924-.693h0l-.231-.231L35.231,14.7v3A29.444,29.444,0,0,1,35,22.321,23.647,23.647,0,0,0,51.858,29.711Z" transform="translate(45.828 19.642)"/><path class="a" d="M47.595,23.014a.226.226,0,0,0-.231-.231c-.231-1.155-.462-2.078-.693-3.233a11.592,11.592,0,0,0-.462-2.771A3.5,3.5,0,0,0,43.9,14.7v7.39a5.875,5.875,0,0,1,1.617.462C45.978,22.783,46.9,22.783,47.595,23.014Z" transform="translate(57.482 19.642)"/><path class="a" d="M57.756,35.228a7.84,7.84,0,0,1-.924-6A24.1,24.1,0,0,1,58.68,23.45l.231-.231c.693-1.617,1.155-3.233.231-3.926-.462-.231-1.155-.231-1.386,2.309a6.832,6.832,0,0,1-.462,2.309,1.737,1.737,0,0,1-1.617,1.155,5.646,5.646,0,0,1-4.157-1.386,11.287,11.287,0,0,1-3.233-4.157c-1.155-.231-2.078-.462-3.233-.693-.462,0-.693-.231-.924-.231H43.9v9.238l7.621,18.013V45.62l3.695-3.233a.715.715,0,0,1,.462-.231l.462.231,1.386,2.078a22.305,22.305,0,0,0,5.081-5.312A12.589,12.589,0,0,1,57.756,35.228Z" transform="translate(57.482 24.748)"/><path class="a" d="M47.993,32.471a1.964,1.964,0,0,0-.693,1.155,18.047,18.047,0,0,0,4.619-2.54L51,29.7Z" transform="translate(61.934 39.283)"/><path class="a" d="M43.9,38.98V40.6a1.27,1.27,0,0,0,.693,1.155c.462.462.924.231,1.386.231h.462l3.464-.693h0L50.6,39.9,43.9,24.2V38.98Z" transform="translate(57.482 32.081)"/><path class="a" d="M63.158,21.519c-.231,0-.462-.231-.693-.231A.922.922,0,0,1,62,20.364c.231-.462.462-.693.924-.462a11.6,11.6,0,0,0-1.155-3l-1.155.924-.231.231-.231.231-.231.231h0l.231.231c.231,0,.231.231.231.462V19.9c-.231.231-.462.462-.693.462h-.462l-1.617-.924a25.19,25.19,0,0,0-2.54-1.386h-.462l-1.848.693-.462.231h0a1.775,1.775,0,0,0-.693.462.715.715,0,0,1-.231.462h0c-.462,1.155-.693,1.848-1.155,2.078a9.473,9.473,0,0,1-2.54.231H46.3a20.818,20.818,0,0,0,2.078,2.309,3.173,3.173,0,0,0,2.54.924h.231c.462-.231.462-1.155.693-2.309.462-2.078.924-4.85,3.7-3,2.54,1.617,1.155,4.85.693,6.235h1.155a20.277,20.277,0,0,0-1.617,5.312,7.848,7.848,0,0,0,.693,4.619c.924,1.617,2.771,2.771,4.388,3.695h0a25.652,25.652,0,0,0,3-18.013A1.776,1.776,0,0,1,63.158,21.519Z" transform="translate(60.624 22.523)"/><path class="a" d="M54.321,36.361h0c-7.39,0-14.318-3.464-19.63-9.468a1.27,1.27,0,0,0-1.155-.693,1.559,1.559,0,0,0-1.386.924,1.8,1.8,0,0,0,.462,1.848c6,6.928,13.856,10.623,21.939,10.623a1.579,1.579,0,0,0,1.617-1.617A1.96,1.96,0,0,0,54.321,36.361Z" transform="translate(41.98 34.7)"/><path class="a" d="M92.973,28.558v1.848a.226.226,0,0,0,.231.231h3.233a.226.226,0,0,0,.231-.231V2.231A.226.226,0,0,0,96.437,2H93.2a.226.226,0,0,0-.231.231V12.854a7.775,7.775,0,0,0-6-2.771c-4.619,0-9.468,3.926-9.468,10.392,0,6,3.926,10.392,9.468,10.392A6.5,6.5,0,0,0,92.973,28.558ZM81.426,20.706c0-3.464,1.848-7.159,5.773-7.159,3.7,0,5.773,2.54,5.773,7.159,0,3.464-2.078,7.159-5.773,7.159C82.812,27.865,81.426,24.17,81.426,20.706Z" transform="translate(101.477 3.013)"/><path class="a" d="M73.162,25.923h3.464V15.3c0-1.386.231-6.235,4.388-6.235a3.432,3.432,0,0,1,2.078.462h.231l.231-.231V6.062c0-.231,0-.231-.231-.231A6.394,6.394,0,0,0,81.245,5.6,6.025,6.025,0,0,0,76.4,8.14l-.231-1.848a.226.226,0,0,0-.231-.231h-3a.226.226,0,0,0-.231.231V25.461C72.931,25.923,72.931,25.923,73.162,25.923Z" transform="translate(95.192 7.727)"/><path class="a" d="M131.468,5.6C125.926,5.6,122,9.988,122,15.992c0,6.235,3.7,10.392,9.468,10.392a11.854,11.854,0,0,0,8.083-2.771c.231,0,.231-.231,0-.462l-.924-2.54-.231-.231h-.231a10.193,10.193,0,0,1-6.7,2.309c-3.7,0-5.312-3.233-5.543-6.235h14.087a.226.226,0,0,0,.231-.231C140.475,9.3,137.242,5.6,131.468,5.6Zm-5.312,8.314A5.7,5.7,0,0,1,131.7,8.833c2.771,0,4.388,1.617,5.081,5.081Z" transform="translate(159.744 7.727)"/><path class="a" d="M129.773,21.335h-.231A8.064,8.064,0,0,1,124,23.182c-3.7,0-5.773-2.54-5.773-7.159,0-3.233,1.617-7.159,5.773-7.159,1.848,0,3.464.231,4.85,1.847l.231.231a.226.226,0,0,0,.231-.231L130.7,8.633V8.171C128.849,5.631,125.385,5.4,124,5.4c-5.543,0-9.7,4.388-9.7,10.392s3.926,10.623,9.7,10.623a10.1,10.1,0,0,0,6.7-2.078.32.32,0,0,0,0-.462l-.924-2.54Q130.119,21.681,129.773,21.335Z" transform="translate(149.662 7.465)"/><path class="a" d="M73.394,2C66,2,60,8.466,60,16.549S66,31.1,73.394,31.1s13.394-6.7,13.394-14.549S80.784,2,73.394,2Zm0,25.865c-5.312,0-9.7-5.081-9.7-11.085S68.083,5.7,73.394,5.7s9.7,4.85,9.7,10.854C83.094,22.784,78.706,27.865,73.394,27.865Z" transform="translate(78.563 3.013)"/><path class="a" d="M90.623,19.831a6.394,6.394,0,0,0-2.078-.231,6.025,6.025,0,0,0-4.85,2.54l-.231-1.847a.226.226,0,0,0-.231-.231H80v19.4a.226.226,0,0,0,.231.231h3.464V29.068c0-1.386.231-6.235,4.388-6.235a3.432,3.432,0,0,1,2.078.462h.231l.231-.231v-3C90.854,20.062,90.854,19.831,90.623,19.831Z" transform="translate(104.75 26.058)"/><path class="a" d="M105.4,26.746a7.448,7.448,0,0,0,6-2.771v1.848a.226.226,0,0,0,.231.231h3.233a.226.226,0,0,0,.231-.231V6.424a.226.226,0,0,0-.231-.231h-3a.226.226,0,0,0-.231.231L111.4,8.271A8.248,8.248,0,0,0,105.168,5.5C100.55,5.5,95.7,9.426,95.7,15.892,95.931,22.128,100.088,26.746,105.4,26.746ZM105.63,9.2c3.695,0,5.773,2.54,5.773,7.159,0,3.464-2.078,7.159-5.773,7.159-4.388,0-5.773-3.7-5.773-7.159C99.857,12.659,101.7,9.2,105.63,9.2Z" transform="translate(125.308 7.596)"/><path class="a" d="M87.731,25.923h3.233a.226.226,0,0,0,.231-.231V13.683c0-2.771,3.233-4.619,5.543-4.619,1.848,0,3,.693,3.464,2.309a16.5,16.5,0,0,1,.462,4.85v9.7a.226.226,0,0,0,.231.231h3.233a.226.226,0,0,0,.231-.231V15.3c0-6.466-2.54-9.7-7.39-9.7a8.248,8.248,0,0,0-6.235,2.771l.231-2.078a.226.226,0,0,0-.231-.231h-3a.226.226,0,0,0-.231.231V25.461c0,.231,0,.231.231.462Z" transform="translate(114.571 7.727)"/><path class="a" d="M103.068,19.6c-5.543,0-9.468,4.388-9.468,10.392,0,6.235,3.695,10.392,9.468,10.392a11.854,11.854,0,0,0,8.083-2.771.32.32,0,0,0,0-.462l-.924-2.54L110,34.38h-.231a10.193,10.193,0,0,1-6.7,2.309c-3.695,0-5.312-3.233-5.543-6.235h14.318v-.231C111.844,23.526,108.842,19.6,103.068,19.6Zm-5.543,8.314a5.7,5.7,0,0,1,5.543-5.081c2.771,0,4.388,1.617,5.081,5.081Z" transform="translate(122.558 26.058)"/><path class="a" d="M104.7,20.031l-.231-.231h-3.233c-.231,0-.231,0-.231.231L95,35.273,89.226,20.031A.226.226,0,0,0,89,19.8H85.531a.226.226,0,0,0-.231.231v.231L93.152,39.43a.226.226,0,0,0,.231.231h3c.231,0,.231,0,.231-.231L104.7,20.262Z" transform="translate(111.69 26.32)"/><path class="a" d="M120.668,19.8h-3.233c-.231,0-.231,0-.231.231l-6,15.242-5.773-15.242a.226.226,0,0,0-.231-.231h-3.464a.226.226,0,0,0-.231.231v.231l7.852,19.168c-1.155,3.233-2.771,4.85-5.773,5.773a.226.226,0,0,0-.231.231v.231l1.847,2.078.231.231h0c3.233-.462,5.773-3,7.39-6.928l8.314-20.784v-.231C120.9,20.031,120.9,19.8,120.668,19.8Z" transform="translate(132.902 26.32)"/><path class="a" d="M115.73,5.6A8.247,8.247,0,0,0,109.5,8.371l-.231-1.848a.226.226,0,0,0-.231-.231h-3a.226.226,0,0,0-.231.231V25.692a.226.226,0,0,0,.231.231H109.5V13.683c0-2.771,3.233-4.619,5.543-4.619,1.848,0,3,.693,3.464,2.309a16.5,16.5,0,0,1,.462,4.85v9.7a.226.226,0,0,0,.231.231h3.233a.226.226,0,0,0,.231-.231V15.3C123.12,8.833,120.58,5.6,115.73,5.6Z" transform="translate(138.532 7.727)"/><path class="a" d="M71.468,28.009c-2.078-.693-4.85-1.617-4.85-4.388s2.309-4.157,4.85-4.157a13.363,13.363,0,0,1,4.85,1.617h.462L78.4,18.771V18.54a.226.226,0,0,0-.231-.231A10.9,10.9,0,0,0,71.238,16c-4.157,0-8.545,2.309-8.545,7.39,0,3.926,2.771,6.928,7.852,8.314,3,.924,5.773,1.847,5.543,5.081a4.736,4.736,0,0,1-4.85,4.85,10.132,10.132,0,0,1-7.159-3h-.231a.226.226,0,0,0-.231.231L62,41.172v.462A13.514,13.514,0,0,0,71.468,45.1c5.312,0,8.776-3.464,9.007-8.314C80.244,32.628,77.242,29.394,71.468,28.009Z" transform="translate(81.182 21.344)"/><path class="a" d="M87.858,19.8H84.394V32.04c0,2.771-3.233,4.619-5.543,4.619-1.848,0-3-.693-3.464-2.309a16.5,16.5,0,0,1-.462-4.85V20.031H71.462c-.462-.231-.462,0-.462.231V30.654c0,6.466,2.54,9.7,7.39,9.7a8.248,8.248,0,0,0,6.235-2.771l.231,1.847a.226.226,0,0,0,.231.231H88.32V20.031C88.089,19.8,88.089,19.8,87.858,19.8Z" transform="translate(92.966 26.32)"/></svg>